<svg width="63" height="21" viewBox="0 0 63 21" fill="none" xmlns="http://www.w3.org/2000/svg">
<path d="M41.9737 9.1875H34.6469L39.8276 4.00353L37.9726 2.14735L32.7918 7.33131V0H30.1686V7.33131L24.9879 2.14735L23.1328 4.00353L28.3136 9.1875H20.9868V11.8126H28.3136L23.1328 16.9965L24.9879 18.8527L30.1686 13.6685V20.9998H32.7918V13.6685L37.9726 18.8527L39.8276 16.9965L34.6469 11.8126H41.9737V9.1875Z" fill="white"/>
<path d="M47.9156 2.62508H61.8535V0H47.9156C44.6558 0 42.0131 2.64428 42.0131 5.90615C42.0131 7.12039 42.3797 8.24894 43.0078 9.1875C44.0666 10.7703 45.8693 11.8126 47.9156 11.8126H57.0975C58.9084 11.8126 60.3765 13.2816 60.3765 15.0936C60.3765 16.906 58.9084 18.375 57.0975 18.375H43.1593V20.9998H57.0975C60.3573 20.9998 63 18.3555 63 15.0936C63 13.8794 62.6334 12.7511 62.0053 11.8126C60.9465 10.2298 59.1438 9.1875 57.0975 9.1875H47.9156C46.1047 9.1875 44.6363 7.71848 44.6363 5.90643C44.6363 4.09438 46.1047 2.62508 47.9156 2.62508Z" fill="white"/>
<path d="M18.3634 5.90635C18.3634 7.71841 16.8953 9.18771 15.0841 9.18771H2.62318V2.625H15.0841C16.8953 2.625 18.3634 4.0943 18.3634 5.90635ZM20.9869 5.90635C20.9869 2.64449 18.3442 0.000207474 15.0841 0.000207474H0V21H2.62318V11.8125H13.8196C16.3291 11.8125 18.3634 13.8481 18.3634 16.3591V21H20.9869V16.6122C20.9869 14.3003 19.9306 12.2355 18.2752 10.8739C19.906 9.82306 20.9869 7.99152 20.9869 5.90635Z" fill="white"/>
</svg>
