<svg width="52" height="170" viewBox="0 0 52 170" fill="none" xmlns="http://www.w3.org/2000/svg">
<rect width="170" height="52" transform="translate(7.43094e-06 170) rotate(-90)" fill="#EB4B29"/>
<path d="M24.5 145.633C23.1406 145.875 22.3594 146.961 22.3594 148.336C22.3594 150.188 23.7813 151.5 26.3438 151.492C28.9453 151.5 30.3281 150.18 30.3281 148.336C30.3281 146.992 29.5781 145.906 28.25 145.633L28.25 143.586C30.4219 143.898 32.1563 145.688 32.1563 148.367C32.1563 151.352 29.9922 153.547 26.3438 153.539C22.6875 153.547 20.5313 151.328 20.5313 148.367C20.5313 145.867 21.9844 143.938 24.5 143.586L24.5 145.633ZM32.1719 138.227C32.1719 140.703 30.4141 142.289 27.7969 142.289C25.1563 142.289 23.4063 140.703 23.4063 138.227C23.4063 135.742 25.1563 134.156 27.7969 134.164C30.4141 134.156 32.1719 135.742 32.1719 138.227ZM27.7813 140.273C29.3359 140.273 30.5781 139.594 30.5781 138.211C30.5781 136.852 29.3359 136.172 27.7813 136.18C26.2266 136.172 24.9766 136.852 24.9844 138.211C24.9766 139.594 26.2266 140.273 27.7813 140.273ZM27.0313 130.617L32 130.617L32 132.617L23.5156 132.617L23.5156 130.711L24.9531 130.711L24.9531 130.602C24.0078 130.219 23.4063 129.352 23.4063 128.086C23.4063 126.328 24.5625 125.172 26.5938 125.18L32 125.18L32 127.164L26.9063 127.164C25.7656 127.164 25.0859 127.781 25.0938 128.82C25.0859 129.875 25.7969 130.617 27.0313 130.617ZM23.5156 119.039L25.0469 119.039L25.0469 120.711L29.4531 120.711C30.2656 120.711 30.4297 120.305 30.4375 119.805C30.4453 119.57 30.4219 119.18 30.4063 118.93L32.0313 118.93C32.0703 119.164 32.1172 119.547 32.1094 120.055C32.1172 121.555 31.375 122.711 29.7813 122.695L25.0469 122.695L25.0469 123.914L23.5156 123.914L23.5156 122.695L21.4844 122.695L21.4844 120.711L23.5156 120.711L23.5156 119.039ZM29.6094 117.898C27.7031 117.898 27.1484 116.313 27.0469 114.742C27 114.148 26.9453 112.938 26.9297 112.563L26.25 112.57C25.4063 112.57 24.9219 113.109 24.9219 114.102C24.9219 114.992 25.3281 115.539 25.9375 115.695L25.9375 117.617C24.4922 117.477 23.4063 116.18 23.4063 114.055C23.4063 112.445 24.0703 110.586 26.3281 110.586L32 110.586L32 112.492L30.8281 112.492L30.8281 112.555C31.5469 112.93 32.1719 113.719 32.1719 115.055C32.1719 116.672 31.2891 117.898 29.6094 117.898ZM29.5938 115.977C30.3281 115.977 30.7031 115.375 30.7031 114.539C30.7031 113.328 29.9063 112.555 28.9531 112.555L28.2578 112.563C28.2734 112.922 28.3438 114.031 28.375 114.43C28.4531 115.375 28.8516 115.977 29.5938 115.977ZM32.1719 105.008C32.1719 107.539 30.3594 109.07 27.7969 109.07C25.1953 109.07 23.4063 107.492 23.4063 105.008C23.4063 102.953 24.6094 101.508 26.4375 101.367L26.4375 103.273C25.625 103.43 25.0078 104.023 25 104.992C25.0078 106.227 26.0391 107.055 27.75 107.055C29.5 107.055 30.5391 106.242 30.5469 104.992C30.5391 104.109 30.0234 103.453 29.1094 103.273L29.1094 101.367C30.8984 101.516 32.1719 102.875 32.1719 105.008ZM23.5156 95.6328L25.0469 95.6328L25.0469 97.3047L29.4531 97.3047C30.2656 97.3047 30.4297 96.8984 30.4375 96.3984C30.4453 96.1641 30.4219 95.7734 30.4063 95.5234L32.0313 95.5234C32.0703 95.7578 32.1172 96.1406 32.1094 96.6484C32.1172 98.1484 31.375 99.3047 29.7813 99.2891L25.0469 99.2891L25.0469 100.508L23.5156 100.508L23.5156 99.2891L21.4844 99.2891L21.4844 97.3047L23.5156 97.3047L23.5156 95.6328ZM32.125 92.8672C32.125 93.5391 31.5781 94.0938 30.9063 94.0859C30.25 94.0938 29.7109 93.5391 29.7031 92.8672C29.7109 92.2188 30.25 91.6641 30.9063 91.6641C31.5781 91.6641 32.125 92.2188 32.125 92.8672Z" fill="#111111"/>
<path d="M24.6251 15.5L24.6251 23.1805L19.1942 17.7496L17.2496 19.6942L22.6805 25.1251L15 25.1251L15 27.8749L22.6805 27.8749L17.2496 33.3058L19.1942 35.2504L24.6251 29.8195L24.6251 37.5L27.3752 37.5L27.3752 29.8195L32.8061 35.2504L34.7507 33.3058L29.3195 27.8749L37 27.8749L37 25.1251L29.3195 25.1251L34.7507 19.6942L32.8061 17.7496L27.3752 23.1805L27.3752 15.5L24.6251 15.5Z" fill="#111111"/>
</svg>
