<svg width="280" height="60" viewBox="0 0 280 60" fill="none" xmlns="http://www.w3.org/2000/svg">
<rect width="280" height="60" rx="6" fill="#1E1E1E"/>
<path d="M64.8406 23.7188C66.9812 23.7266 68.575 25.0469 68.5906 26.9062C68.575 28.7734 66.9812 30.0859 64.8406 30.0938C62.6844 30.0859 61.0906 28.7734 61.0906 26.9062C61.0906 25.0469 62.6844 23.7266 64.8406 23.7188ZM62.7781 26.9062C62.7781 28 63.6531 28.6875 64.8406 28.6875C66.0281 28.6875 66.8953 28 66.9031 26.9062C66.8953 25.8359 66.0281 25.1484 64.8406 25.1562C63.6531 25.1484 62.7781 25.8359 62.7781 26.9062ZM63.2312 32.375V31.0156H72.6062V34.7031H64.9656V35.8438H73.0281V37.2188H63.2625V33.4219H70.8719V32.375H63.2312ZM70.8562 30.4062V23.2656H72.6062V30.4062H70.8562ZM85.4094 23.2812V27.3594H87.3781V28.7969H85.4094V33.6719H83.675V23.2812H85.4094ZM74.7531 31.375V24.2812H76.4719V26.4375H79.7688V24.2812H81.4875V31.375H74.7531ZM76.3625 37.1094V32.625H78.0969V35.7031H85.9719V37.1094H76.3625ZM76.4719 30H79.7688V27.7812H76.4719V30Z" fill="white" fill-opacity="0.6"/>
<rect x="140" y="8" width="132" height="44" rx="6" fill="white" fill-opacity="0.16"/>
<path d="M192.319 34.2344V35.6875H179.413V34.2344H192.319ZM180.475 25.9688V24.5781H191.194V25.9688H189.131V30.4688H191.147V31.8438H180.522V30.4688H182.506V25.9688H180.475ZM184.241 30.4688H187.413V25.9688H184.241V30.4688ZM204.606 23.2656V37.4062H202.888V23.2656H204.606ZM193.606 25.9062V24.5H200.263V29.7969H195.403V32.6406C197.63 32.625 199.544 32.5078 201.747 32.1406L201.903 33.5625C199.505 33.9766 197.395 34.0703 194.856 34.0625H193.622V28.4219H198.497V25.9062H193.606ZM213.738 24.5938V33.9531H207.019V24.5938H213.738ZM208.738 32.5625H212.05V25.9531H208.738V32.5625ZM216.269 37.4062V23.2656H218.019V37.4062H216.269ZM223.619 24.0469C225.447 24.0391 226.884 25.1094 227.236 26.6875H229.791V23.2656H231.525V31.3125H229.791V28.1094H227.252C226.931 29.7422 225.478 30.8359 223.619 30.8281C221.486 30.8359 219.884 29.4297 219.884 27.4375C219.884 25.4531 221.486 24.0391 223.619 24.0469ZM221.541 27.4375C221.541 28.6328 222.416 29.3594 223.619 29.375C224.783 29.3594 225.658 28.6328 225.666 27.4375C225.658 26.2578 224.783 25.4922 223.619 25.5C222.416 25.4922 221.541 26.2578 221.541 27.4375ZM222.134 37.2188V31.9688H231.525V37.2188H222.134ZM223.869 35.8125H229.822V33.3438H223.869V35.8125Z" fill="white"/>
</svg>
