<svg width="399" height="480" viewBox="0 0 399 480" fill="none" xmlns="http://www.w3.org/2000/svg">
<rect width="398.667" height="480" rx="16" fill="#1E1E1E"/>
<path d="M36 42.2946H48.8986V45.3377H40.1406V47.8736H48.8688V50.7974H40.1406V53.572H48.8986V56.8239H36V42.2946Z" fill="#E50045"/>
<path d="M54.4393 36L61.8865 50.3204V42.0862H65.9974V57.0033H62.661L55.0053 42.0862H52.0562V56.9735H55.9883V48.8586L63.4355 63H115V36H54.4393ZM81.8153 45.3083H73.0573V47.8442H81.7855V50.768H73.0573V53.5425H81.8153V56.7945H68.9465V42.295H81.845V45.3381L81.8153 45.3083ZM93.9095 57.0033L91.1987 52.8564L88.4582 57.0033H83.4238L88.2198 49.5448L83.1558 42.0862H88.7263L91.1689 46.1138L93.8499 42.0862H99.2417L94.2372 49.6343L99.1523 57.0033H93.9095Z" fill="#E50045"/>
<path d="M53.4102 360.742V378.789H50.3477V360.742H53.4102ZM32.8477 372.965C36.8535 371.557 38.9043 368.07 38.8906 364.516V362.109H42.0352V364.516C42.0215 367.961 44.0449 371.215 47.9688 372.527L46.4102 374.934C43.5938 373.949 41.584 371.98 40.4902 369.451C39.3965 372.158 37.3457 374.318 34.4336 375.371L32.8477 372.965ZM37.0586 384.941V377.066H40.1211V382.48H54.0938V384.941H37.0586ZM70.7844 362.93V369.984H61.2141V372.445H71.3859V374.824H66.1086V378.242C68.2414 378.16 70.3742 378.023 72.3977 377.805L72.6437 380.02C67.2023 380.881 61.4738 380.949 56.8117 380.895L56.4289 378.379C58.4797 378.393 60.7355 378.393 63.0461 378.338V374.824H58.1516V367.742H67.7766V365.336H58.1242V362.93H70.7844ZM73.8742 385.461V360.715H76.9094V385.461H73.8742ZM99.3148 360.66V366.238H102.787V368.699H99.3148V374.141H96.2797V360.66H99.3148ZM79.8461 365.035V362.711H85.6703V360.523H88.7055V362.711H94.5023V365.035H79.8461ZM81.1039 369.848C81.1039 367.387 83.5238 365.814 87.1742 365.801C90.8383 365.814 93.2035 367.387 93.2172 369.848C93.2035 372.377 90.8383 373.895 87.1742 373.895C83.5238 373.895 81.1039 372.377 81.1039 369.848ZM83.1547 377.449V375.234H99.3148V381.195H86.1898V382.945H100.08V385.215H83.182V379.09H96.2797V377.449H83.1547ZM84.057 369.848C84.0434 371.064 85.2602 371.693 87.1742 371.707C89.0883 371.693 90.3187 371.064 90.3187 369.848C90.3187 368.672 89.0883 367.975 87.1742 367.988C85.2602 367.975 84.0434 368.672 84.057 369.848ZM122.141 362.766C122.128 365.869 125.614 369.027 130.891 369.711L129.688 372.172C125.491 371.543 122.155 369.479 120.542 366.689C118.929 369.479 115.606 371.543 111.45 372.172L110.247 369.711C115.47 369.027 118.942 365.896 118.942 362.766V361.508H122.141V362.766ZM109.262 376.82V374.305H131.794V376.82H121.977V385.434H118.97V376.82H109.262ZM147.484 376.793C147.484 378.857 148.427 381.004 150.546 382.371C152.706 380.908 153.704 378.666 153.718 376.793V375.781H156.698V376.793C156.685 379.377 158.216 381.811 161.456 382.836L159.98 385.051C157.573 384.244 155.988 382.672 155.126 380.689C154.32 382.645 152.87 384.367 150.628 385.27C148.277 384.408 146.8 382.74 146.021 380.785C145.132 382.686 143.56 384.23 141.277 385.051L139.773 382.836C142.972 381.715 144.517 379.199 144.53 376.793V375.781H147.484V376.793ZM139.144 367.934C139.144 364.461 141.988 362.055 145.816 362.055C149.63 362.055 152.474 364.461 152.46 367.934C152.474 371.365 149.63 373.799 145.816 373.785C141.988 373.799 139.144 371.365 139.144 367.934ZM142.124 367.934C142.111 369.957 143.655 371.256 145.816 371.27C147.935 371.256 149.48 369.957 149.48 367.934C149.48 365.91 147.935 364.611 145.816 364.625C143.655 364.611 142.111 365.91 142.124 367.934ZM156.234 374.742V360.742H159.296V374.742H156.234ZM182.221 367.715V370.121H165.104V361.617H168.112V367.715H182.221ZM162.178 375.398V372.992H184.764V375.398H162.178ZM164.885 384.859V377.586H167.92V382.398H182.385V384.859H164.885ZM205.512 362.984V365.391H191.704V362.984H197.227V360.523H200.262V362.984H205.512ZM192.989 370.75C192.975 368.084 195.327 366.279 198.704 366.266C202.067 366.279 204.487 368.084 204.501 370.75C204.487 373.43 202.067 375.207 198.704 375.207C195.327 375.207 192.975 373.43 192.989 370.75ZM195.833 370.75C195.819 372.131 196.954 372.992 198.704 372.992C200.454 372.992 201.657 372.131 201.657 370.75C201.657 369.383 200.454 368.562 198.704 368.562C196.954 368.562 195.819 369.383 195.833 370.75ZM195.887 385.133V376.355H198.923V378.434H209.341V376.355H212.348V385.133H195.887ZM198.923 382.754H209.341V380.73H198.923V382.754ZM205.649 373.457V371.023H209.313V368.617H205.677V366.156H209.313V360.715H212.348V375.398H209.313V373.457H205.649ZM222.012 361.809C225.211 361.795 227.727 363.641 228.342 366.348H232.812V360.715H235.848V373.977H232.812V368.809H228.369C227.781 371.584 225.238 373.457 222.012 373.457C218.225 373.457 215.477 371.023 215.477 367.605C215.477 364.229 218.225 361.795 222.012 361.809ZM218.375 367.605C218.375 369.588 219.879 370.9 222.012 370.887C224.09 370.9 225.58 369.588 225.594 367.605C225.58 365.623 224.09 364.338 222.012 364.352C219.879 364.338 218.375 365.623 218.375 367.605ZM219.551 385.133V375.125H222.559V377.75H232.812V375.125H235.848V385.133H219.551ZM222.559 382.672H232.812V380.102H222.559V382.672Z" fill="white"/>
<path d="M43.6875 405.375V410.812H45.5781V411.859H43.6875V419.266H42.4688V405.375H43.6875ZM32.8438 415.906V406.672H33.9062V410.266H35.6562V406.672H36.7031V415.906H32.8438ZM33.9062 414.875H35.6562V411.25H33.9062V414.875ZM37.4531 415.906V406.672H38.5V410.266H40.2031V406.672H41.25V415.906H37.4531ZM38.5 414.875H40.2031V411.25H38.5V414.875ZM58.6938 413.078V414.094H45.975V413.078H58.6938ZM47.5844 406.844V405.859H57.0531V409.281H48.85V410.828H57.35V411.797H47.6313V408.359H55.8188V406.844H47.5844ZM47.6625 418.969V415.188H48.8969V417.938H57.35V418.969H47.6625ZM74.5187 405.375V419.266H73.2844V405.375H74.5187ZM63.0187 414.781C63.6203 414.781 64.2687 414.773 64.9406 414.766V407.906H63.3781V406.891H71.3156V407.906H69.7375V414.586C70.5187 414.531 71.2922 414.461 72.0344 414.375L72.1125 415.297C69.0812 415.766 65.7297 415.812 63.1594 415.828L63.0187 414.781ZM66.1437 414.742C66.925 414.727 67.7297 414.695 68.5344 414.656V407.906H66.1437V414.742ZM87.6813 412.062V413.078H78.0875V406.672H87.5406V407.688H79.3063V412.062H87.6813ZM76.4625 417.375V416.344H89.1813V417.375H76.4625ZM91.6875 406.266V408.469H94.7812V406.266H95.9375V412.734H90.5312V406.266H91.6875ZM91.6875 411.719H94.7812V409.453H91.6875V411.719ZM92.3281 415.578V414.562H101.688V419.266H100.484V415.578H92.3281ZM97.5156 413.641V405.656H98.6719V409H100.516V405.391H101.688V413.719H100.516V410.016H98.6719V413.641H97.5156ZM111.022 406.922V407.641C111.014 408.742 111.014 410.578 110.616 413.156L109.381 413.047C109.764 410.719 109.795 409.031 109.787 407.922H103.959V406.922H111.022ZM103.178 415.188C104.092 415.18 105.108 415.172 106.178 415.148V410.891H107.381V415.109C108.92 415.055 110.498 414.953 111.944 414.781L112.006 415.703C109.084 416.156 105.819 416.219 103.334 416.203L103.178 415.188ZM112.819 419.266V405.375H114.037V411.188H116.287V412.25H114.037V419.266H112.819ZM131.566 405.984V406.578C131.566 407.414 131.566 408.836 131.159 410.734L129.972 410.625C130.316 408.969 130.37 407.789 130.378 406.969H126.863V405.984H131.566ZM120.378 412.781V411.75H126.363V409.094H127.581V411.75H133.019V412.781H120.378ZM121.472 406.969V405.984H125.706V406.453C125.698 407.227 125.698 408.727 125.066 410.734L123.894 410.578C124.394 408.953 124.488 407.766 124.503 406.969H121.472ZM121.941 419.078V414.312H131.441V419.078H121.941ZM123.144 418.078H130.222V415.266H123.144V418.078ZM144.994 405.984V406.578C144.994 407.414 144.994 408.836 144.588 410.734L143.4 410.625C143.744 408.969 143.798 407.789 143.806 406.969H140.291V405.984H144.994ZM133.806 412.781V411.75H139.791V409.094H141.009V411.75H146.447V412.781H133.806ZM134.9 406.969V405.984H139.134V406.453C139.127 407.227 139.127 408.727 138.494 410.734L137.322 410.578C137.822 408.953 137.916 407.766 137.931 406.969H134.9ZM135.369 419.078V414.312H144.869V419.078H135.369ZM136.572 418.078H143.65V415.266H136.572V418.078ZM158.078 405.391V409.969H160.172V411H158.078V415.797H156.859V405.391H158.078ZM147.25 408.094V407.094H150.781V405.391H152V407.094H155.531V408.094H147.25ZM148.047 411.453C148.039 409.875 149.383 408.859 151.391 408.859C153.375 408.859 154.719 409.875 154.734 411.453C154.719 413.016 153.375 414.023 151.391 414.016C149.383 414.023 148.039 413.016 148.047 411.453ZM149.219 411.453C149.211 412.43 150.078 413.062 151.391 413.047C152.688 413.062 153.562 412.43 153.578 411.453C153.562 410.461 152.688 409.82 151.391 409.828C150.078 409.82 149.211 410.461 149.219 411.453ZM149.391 418.969V414.969H150.594V417.938H158.719V418.969H149.391ZM168.966 407.953C168.973 409.805 170.333 411.492 172.387 412.203L171.762 413.156C170.177 412.594 168.966 411.461 168.372 410.023C167.778 411.602 166.505 412.828 164.872 413.422L164.216 412.469C166.294 411.734 167.747 409.945 167.762 407.953V407.359H164.591V406.359H172.091V407.359H168.966V407.953ZM166.028 415.484V414.484H175.122V419.266H173.903V415.484H166.028ZM173.903 413.75V405.375H175.122V409.047H177.216V410.094H175.122V413.75H173.903ZM181.519 406.031C183.378 406.023 184.8 407.109 185.066 408.703H187.972V405.375H189.206V412.828H187.972V409.719H185.073C184.831 411.359 183.402 412.453 181.519 412.453C179.402 412.453 177.902 411.141 177.909 409.234C177.902 407.352 179.402 406.023 181.519 406.031ZM179.081 409.234C179.081 410.5 180.089 411.414 181.519 411.422C182.917 411.414 183.925 410.5 183.925 409.234C183.925 407.953 182.917 407.062 181.519 407.078C180.089 407.062 179.081 407.953 179.081 409.234ZM180.253 419.078V413.531H181.488V415.297H187.972V413.531H189.206V419.078H180.253ZM181.488 418.078H187.972V416.281H181.488V418.078ZM197.447 406.281C200.345 406.289 202.525 407.805 202.525 410.094C202.525 412.406 200.345 413.922 197.447 413.906C194.548 413.922 192.369 412.406 192.369 410.094C192.369 407.805 194.548 406.289 197.447 406.281ZM191.119 417.422V416.391H203.837V417.422H191.119ZM193.541 410.094C193.525 411.781 195.205 412.906 197.447 412.906C199.673 412.906 201.337 411.781 201.337 410.094C201.337 408.43 199.673 407.273 197.447 407.281C195.205 407.273 193.525 408.43 193.541 410.094ZM217.266 416.516V417.547H204.547V416.516H210.266V413.891H206.141V409.609H214.453V407.422H206.109V406.406H215.656V410.609H207.359V412.875H215.984V413.891H211.469V416.516H217.266ZM36.3906 430.031C38.25 430.023 39.6719 431.109 39.9375 432.703H42.8438V429.375H44.0781V436.828H42.8438V433.719H39.9453C39.7031 435.359 38.2734 436.453 36.3906 436.453C34.2734 436.453 32.7734 435.141 32.7812 433.234C32.7734 431.352 34.2734 430.023 36.3906 430.031ZM33.9531 433.234C33.9531 434.5 34.9609 435.414 36.3906 435.422C37.7891 435.414 38.7969 434.5 38.7969 433.234C38.7969 431.953 37.7891 431.062 36.3906 431.078C34.9609 431.062 33.9531 431.953 33.9531 433.234ZM35.125 443.078V437.531H36.3594V439.297H42.8438V437.531H44.0781V443.078H35.125ZM36.3594 442.078H42.8438V440.281H36.3594V442.078ZM58.6938 437.453V438.469H52.8969V443.266H51.6938V438.469H45.975V437.453H58.6938ZM47.6156 435.562V430.156H57.0375V435.562H47.6156ZM48.8188 434.594H55.8188V431.156H48.8188V434.594ZM70.1688 429.375V435.031H72.4188V436.062H70.1688V443.266H68.95V429.375H70.1688ZM59.5125 439.656C63.0984 437.875 65.0516 435.195 65.3328 431.906H60.1531V430.875H66.575C66.5672 434.805 64.7234 438.391 60.2 440.625L59.5125 439.656ZM87.3219 429.391V433.969H89.4156V435H87.3219V439.797H86.1031V429.391H87.3219ZM76.4938 432.094V431.094H80.025V429.391H81.2438V431.094H84.775V432.094H76.4938ZM77.2906 435.453C77.2828 433.875 78.6266 432.859 80.6344 432.859C82.6188 432.859 83.9625 433.875 83.9781 435.453C83.9625 437.016 82.6188 438.023 80.6344 438.016C78.6266 438.023 77.2828 437.016 77.2906 435.453ZM78.4625 435.453C78.4547 436.43 79.3219 437.062 80.6344 437.047C81.9313 437.062 82.8063 436.43 82.8219 435.453C82.8063 434.461 81.9313 433.82 80.6344 433.828C79.3219 433.82 78.4547 434.461 78.4625 435.453ZM78.6344 442.969V438.969H79.8375V441.938H87.9625V442.969H78.6344ZM101.406 429.375V436.484H100.172V435.031H96.4688V434.062H100.172V432.391H96.6719C95.8047 434.578 93.6484 436.055 90.5625 436.797L90.125 435.781C93.5312 434.992 95.5078 433.336 95.7422 431.094H90.8281V430.078H97.0938C97.0938 430.539 97.0469 430.984 96.9609 431.406H100.172V429.375H101.406ZM92.4062 438.109V437.109H101.406V440.5H93.6562V442.125H101.875V443.141H92.4375V439.562H100.172V438.109H92.4062ZM118.841 429.375V443.266H117.653V435.906H115.716V442.562H114.544V429.672H115.716V434.891H117.653V429.375H118.841ZM107.45 439.531V431H112.762V439.531H107.45ZM108.606 438.547H111.606V431.984H108.606V438.547ZM125.941 430.953V431.469C125.933 432.664 125.941 434.953 125.003 438.672L123.769 438.469C124.597 435.469 124.698 433.281 124.714 431.969H121.347V430.953H125.941ZM120.363 441.188V440.156H133.019V441.188H120.363ZM126.956 431.969V430.953H131.566V432C131.566 433.5 131.581 435.539 130.956 438.656L129.706 438.516C130.355 435.555 130.355 433.492 130.347 432V431.969H126.956ZM145.291 429.375V443.297H144.072V435.75H141.369V434.719H144.072V429.375H145.291ZM134.275 431.688V430.672H140.525V435.531H135.541V438.906C137.939 438.906 139.673 438.828 141.697 438.453L141.791 439.484C139.705 439.859 137.9 439.945 135.384 439.953H134.322V434.516H139.338V431.688H134.275ZM158.719 429.391V443.281H157.469V439.828H154.266V438.891H157.469V429.391H158.719ZM147.156 436.703C149.805 436.695 153.328 436.688 156.391 436.25L156.469 437.172C155.094 437.406 153.664 437.539 152.281 437.625V442.844H151.047V437.688C149.719 437.734 148.445 437.75 147.328 437.75L147.156 436.703ZM148.219 432.812C148.211 431.18 149.648 430.078 151.734 430.078C153.797 430.078 155.242 431.18 155.234 432.812C155.242 434.461 153.797 435.523 151.734 435.531C149.648 435.523 148.211 434.461 148.219 432.812ZM149.375 432.812C149.367 433.867 150.336 434.586 151.734 434.578C153.102 434.586 154.07 433.867 154.078 432.812C154.07 431.766 153.102 431.039 151.734 431.031C150.336 431.039 149.367 431.766 149.375 432.812ZM172.163 429.375V437.516H170.928V435.297H168.334V434.297H170.928V433.031H168.334V432.016H170.928V429.375H172.163ZM160.709 436.562C162.811 435.836 164.248 434.078 164.256 432.078V431.344H161.116V430.328H168.569V431.344H165.506V432.062C165.491 433.891 166.866 435.57 168.897 436.266L168.256 437.219C166.694 436.672 165.491 435.539 164.889 434.125C164.295 435.703 163.022 436.938 161.366 437.531L160.709 436.562ZM161.428 442.172C163.186 441.539 164.241 440.031 164.256 438.688V437.938H165.428V438.688C165.42 439.938 166.084 441.242 167.405 442.008C168.741 441.172 169.42 439.758 169.428 438.688V437.938H170.631V438.688C170.623 440.125 171.663 441.57 173.475 442.172L172.834 443.094C171.452 442.586 170.483 441.617 170.014 440.445C169.577 441.578 168.725 442.656 167.428 443.203C166.1 442.688 165.241 441.664 164.819 440.492C164.319 441.609 163.366 442.586 162.038 443.094L161.428 442.172ZM176.903 437.719V439.344H183.841V437.719H185.075V443.078H175.684V437.719H176.903ZM174.075 436.734V435.719H186.731V436.734H174.075ZM174.794 433.75C177.27 433.414 179.778 431.953 179.778 430.188V429.531H181.044V430.188C181.036 431.898 183.567 433.438 186.012 433.75L185.559 434.734C183.411 434.414 181.294 433.32 180.411 431.766C179.528 433.328 177.403 434.414 175.262 434.734L174.794 433.75ZM176.903 442.094H183.841V440.312H176.903V442.094ZM198.956 429.375V443.266H197.738V429.375H198.956ZM188.409 439.688V430.75H189.613V438.625C191.738 438.609 193.925 438.445 196.253 437.953L196.425 439C193.956 439.516 191.761 439.688 189.534 439.688H188.409ZM211.681 429.375V434.875H214.009V435.906H211.681V443.297H210.462V429.375H211.681ZM201.541 439.812V430.734H208.025V431.75H202.759V438.781C205.275 438.773 207.048 438.664 209.119 438.281L209.275 439.344C207.095 439.734 205.275 439.812 202.634 439.812H201.541ZM215.828 442.094C215.281 442.086 214.812 441.633 214.828 441.078C214.812 440.531 215.281 440.078 215.828 440.078C216.383 440.078 216.836 440.531 216.828 441.078C216.836 441.633 216.383 442.086 215.828 442.094Z" fill="white" fill-opacity="0.8"/>
</svg>
